<svg width="198" height="157" viewBox="0 0 198 157" fill="none" xmlns="http://www.w3.org/2000/svg">
<g opacity="0.2" filter="url(#filter0_d)">
<path d="M31.1742 39.2335C31.5998 31.117 38.1258 24.7027 46.2465 24.3686C60.4935 23.7825 82.5881 23 99 23C115.412 23 137.507 23.7825 151.753 24.3686C159.874 24.7027 166.4 31.117 166.826 39.2335C167.377 49.7354 168 64.0436 168 75C168 85.9564 167.377 100.265 166.826 110.767C166.4 118.883 159.874 125.297 151.753 125.631C137.507 126.217 115.412 127 99 127C82.5881 127 60.4935 126.217 46.2465 125.631C38.1258 125.297 31.5998 118.883 31.1742 110.767C30.6235 100.265 30 85.9564 30 75C30 64.0436 30.6235 49.7354 31.1742 39.2335Z" fill="white"/>
</g>
<path d="M56.9204 102.268C57.2854 101.146 57.5308 99.8031 57.4411 98.2901C57.2271 94.69 55.241 92.1538 54.3347 91.1321H51.2903C51.2719 94.3296 51.2543 97.5278 51.2359 100.725C51.3778 100.744 51.6239 100.784 51.9214 100.856C51.9728 100.869 52.0204 100.879 52.0756 100.894C52.1339 100.91 52.1975 100.931 52.2589 100.95C52.3371 100.973 52.416 100.997 52.4981 101.026C52.5656 101.049 52.6354 101.077 52.7044 101.104C52.7864 101.136 52.8685 101.168 52.9528 101.206C53.0303 101.24 53.1085 101.278 53.1867 101.317C53.2642 101.355 53.3416 101.397 53.4191 101.441C53.5042 101.488 53.5885 101.537 53.6736 101.591C53.7465 101.638 53.8178 101.69 53.8891 101.742C53.9742 101.803 54.0594 101.863 54.1414 101.931C54.2488 102.019 54.3515 102.118 54.4527 102.22C54.6421 102.417 54.8868 102.716 55.0961 103.086C55.1214 103.134 55.1506 103.18 55.1728 103.228C55.2012 103.282 55.2249 103.342 55.2502 103.4C55.5746 104.198 55.5018 104.896 55.4443 105.196C54.9236 107.356 51.7428 108.923 50.522 108.472C48.6164 107.769 51.3072 102.14 48.5704 101.031C48.0183 100.808 47.4723 100.86 47.151 100.891C44.2861 101.168 41.7472 104.785 42.0202 107.862C42.3016 111.035 45.6971 114.998 51.2359 114.998C56.1973 114.998 60.4524 111.82 60.4524 107.862C60.4524 105.603 59.0629 103.58 56.9204 102.268Z" fill="#231F20"/>
<path d="M99.6831 102.268C100.048 101.146 100.293 99.8031 100.204 98.2901C99.9898 94.69 98.0037 92.1538 97.0973 91.1321H94.0522C94.0346 94.3296 94.0162 97.5278 93.9986 100.725C94.1404 100.744 94.3866 100.784 94.6833 100.856C94.7355 100.869 94.7823 100.879 94.8382 100.894C94.8958 100.91 94.9602 100.931 95.0215 100.95C95.0997 100.973 95.1779 100.997 95.2608 101.026C95.3282 101.049 95.398 101.077 95.467 101.104C95.5483 101.136 95.6311 101.168 95.7147 101.206C95.7922 101.24 95.8704 101.278 95.9494 101.317C96.0261 101.355 96.1043 101.397 96.1817 101.441C96.2661 101.488 96.3512 101.537 96.4363 101.591C96.5084 101.638 96.5805 101.69 96.6518 101.742C96.7369 101.803 96.822 101.863 96.9041 101.931C97.0114 102.019 97.1142 102.118 97.2154 102.22C97.4048 102.417 97.6494 102.716 97.8588 103.086C97.8841 103.134 97.9132 103.18 97.9355 103.228C97.9631 103.282 97.9868 103.342 98.0129 103.4C98.3373 104.198 98.2637 104.896 98.2069 105.196C97.6862 107.356 94.5054 108.923 93.2846 108.472C91.3791 107.769 94.0691 102.14 91.3331 101.031C90.781 100.808 90.235 100.86 89.9137 100.891C87.048 101.168 84.5098 104.785 84.7821 107.862C85.0643 111.035 88.4598 114.998 93.9986 114.998C98.9599 114.998 103.214 111.82 103.214 107.862C103.214 105.603 101.826 103.58 99.6831 102.268Z" fill="#231F20"/>
<path d="M75.6758 91.2399C74.5578 91.2399 73.5103 91.9379 72.6078 93.1517C71.7044 91.9379 70.657 91.2399 69.5389 91.2399C66.1495 91.2399 63.4012 97.6227 63.4012 105.496C63.4012 109.148 63.9932 112.477 64.9656 115H68.1671C67.8749 113.486 67.6978 111.489 67.6978 109.298C67.6978 104.573 68.5221 100.744 69.5389 100.744C69.6516 100.744 69.7613 100.798 69.8687 100.888C69.6555 102.334 69.5389 103.883 69.5389 105.496C69.5389 108.979 70.0818 112.161 70.9744 114.636C70.9537 114.759 70.933 114.884 70.9108 115H71.1025H74.1115H74.304C74.2818 114.884 74.261 114.759 74.2396 114.636C75.1329 112.161 75.6758 108.979 75.6758 105.496C75.6758 103.883 75.5593 102.334 75.3461 100.888C75.4535 100.798 75.5631 100.744 75.6758 100.744C76.6927 100.744 77.517 104.573 77.517 109.298C77.517 111.489 77.3391 113.486 77.0485 115H80.2492C81.2215 112.477 81.8128 109.148 81.8128 105.496C81.8128 97.6227 79.0652 91.2399 75.6758 91.2399Z" fill="#231F20"/>
<path d="M149.863 91.2399C148.745 91.2399 147.698 91.9379 146.794 93.1517C145.892 91.9379 144.844 91.2399 143.726 91.2399C140.336 91.2399 137.588 97.6227 137.588 105.496C137.588 109.148 138.18 112.477 139.153 115H142.354C142.062 113.486 141.884 111.489 141.884 109.298C141.884 104.573 142.709 100.744 143.726 100.744C143.839 100.744 143.949 100.798 144.055 100.888C143.843 102.334 143.726 103.883 143.726 105.496C143.726 108.979 144.268 112.161 145.162 114.636C145.141 114.759 145.12 114.884 145.098 115H145.29H148.299H148.491C148.469 114.884 148.448 114.759 148.427 114.636C149.32 112.161 149.863 108.979 149.863 105.496C149.863 103.883 149.746 102.334 149.533 100.888C149.641 100.798 149.75 100.744 149.863 100.744C150.88 100.744 151.704 104.573 151.704 109.298C151.704 111.489 151.526 113.486 151.235 115H154.436C155.408 112.477 156 109.148 156 105.496C156 97.6227 153.252 91.2399 149.863 91.2399Z" fill="#231F20"/>
<path d="M112.301 91.2399C108.912 91.2399 106.164 97.6227 106.164 105.496C106.164 109.148 106.756 112.477 107.728 115H110.929C110.638 113.486 110.46 111.489 110.46 109.298C110.46 104.573 111.284 100.744 112.301 100.744C113.318 100.744 114.142 104.573 114.142 109.298C114.142 111.489 113.965 113.486 113.673 115H116.875C117.846 112.477 118.438 109.148 118.438 105.496C118.438 97.6227 115.691 91.2399 112.301 91.2399Z" fill="#231F20"/>
<path d="M130.222 97.8983V91.1321C127.783 91.1321 125.805 92.6635 125.805 94.5523C125.805 96.2513 127.406 97.6564 129.501 97.9228C129.812 99.0095 130.001 100.437 130.001 102.003C130.001 105.404 129.111 108.16 128.014 108.16C126.916 108.16 126.025 105.404 126.025 102.003C126.025 100.426 126.217 98.9881 126.532 97.8983H123.076C122.026 99.7136 121.387 102.111 121.387 104.739C121.387 110.407 124.354 115 128.014 115C131.673 115 134.639 110.407 134.639 104.739C134.639 102.111 134 99.7136 132.951 97.8983H130.222Z" fill="#231F20"/>
<path d="M112.607 51.7036C113.856 51.9378 115.217 51.2651 116.02 50.3964C117.314 48.9951 117.091 47.1599 116.598 40.4313C116.437 38.2478 116.319 36.5121 116.257 35.5715C115.81 35.6679 110.57 36.8787 108.962 41.4178C107.466 45.6408 109.678 51.1549 112.607 51.7036Z" fill="#389D58"/>
<path d="M68.7288 57.6871C71.4533 58.9009 75.3411 58.8979 80.4405 54.8432C77.3034 55.0246 75.2 55.2358 75.2 55.2358C75.2 55.2358 76.8571 46.5326 74.3718 46.1997C73.217 46.0451 68.2748 48.9702 64.3832 53.9011C65.0932 54.9557 66.5333 56.709 68.7288 57.6871Z" fill="#319C96"/>
<path d="M65.0271 78.175C65.0271 76.1354 66.6843 74.4816 68.7286 74.4816C70.5736 74.4816 72.0904 75.8324 72.3718 77.5949C74.1509 75.2507 75.1914 72.4604 75.2298 69.5698C75.3233 62.4194 69.2792 58.0694 68.7286 57.6867C66.5332 56.7087 65.0931 54.9553 64.383 53.9007C59.9009 59.5778 56.8114 67.9152 62.5004 77.2796H63.2059C63.0602 77.7831 62.9782 78.315 62.9782 78.8653C62.9782 80.4549 63.6254 81.8921 64.6721 82.9322C65.6989 82.5465 66.6774 82.1255 67.6236 81.6832C66.1229 81.2118 65.0271 79.8281 65.0271 78.175Z" fill="#2AB3AB"/>
<path d="M67.6235 81.6831C66.6772 82.1255 65.6987 82.5464 64.6719 82.9321C64.7026 82.9627 64.7371 82.9895 64.7686 83.0201C65.7992 82.6666 66.7761 82.2273 67.6856 81.7015C67.6649 81.6961 67.6442 81.6893 67.6235 81.6831Z" fill="#EFD1A5"/>
<path d="M115.443 81.8693C113.399 81.8693 111.742 80.2154 111.742 78.1751C111.742 76.1355 113.399 74.4817 115.443 74.4817C117.487 74.4817 119.145 76.1355 119.145 78.1751C119.145 80.2154 117.487 81.8693 115.443 81.8693ZM120.967 77.285C118.007 74.9064 115.955 72.2622 114.538 69.6365C109.045 62.3728 95.2762 70.5089 91.3907 73.0268C89.0419 74.6906 86.0881 76.1623 82.3805 77.2797H109.92C109.775 77.7832 109.693 78.3144 109.693 78.8654C109.693 82.0353 112.267 84.6045 115.443 84.6045C118.619 84.6045 121.193 82.0353 121.193 78.8654C121.193 78.3159 121.111 77.7878 120.967 77.285Z" fill="#E7A529"/>
<path d="M114.538 69.6362C111.446 63.9047 111.391 58.2636 111.578 55.6868C108.807 55.8261 105.424 55.7212 100.366 55.2781C100.472 58.6669 99.7958 67.0731 91.3906 73.0273C95.2761 70.5094 109.045 62.3733 114.538 69.6362Z" fill="#ECB41F"/>
<path d="M119.327 52.007C119.149 52.7019 118.321 54.9106 114.957 55.3729C113.891 55.5206 112.792 55.6262 111.578 55.6874C111.306 59.4436 111.546 69.7156 120.968 77.2846C120.967 77.2831 120.967 77.2808 120.966 77.2792H122.136C122.136 77.2792 127.657 77.6933 127.934 70.3906C128.047 67.383 128.066 64.7824 128.051 62.7528C127.759 55.9078 121.47 52.8511 119.327 52.007Z" fill="#D43924"/>
<path d="M126.609 42.6364C126.311 42.9494 125.902 43.1308 125.503 43.1553C125.104 43.1683 124.717 43.042 124.468 42.7825C125.174 42.8667 125.714 42.5262 125.935 42.1052C126.168 41.682 126.098 41.1922 125.832 40.87C125.566 40.5455 125.098 40.3856 124.637 40.5318C124.177 40.6703 123.744 41.1325 123.691 41.842C123.622 41.6912 123.517 41.5213 123.496 41.3346C123.466 41.1486 123.48 40.9519 123.523 40.7568C123.623 40.371 123.879 40.0052 124.244 39.7726C124.608 39.5338 125.072 39.4458 125.516 39.5131C125.964 39.5858 126.381 39.8269 126.674 40.1766C126.963 40.5295 127.122 40.9886 127.107 41.4387C127.09 41.8864 126.914 42.3279 126.609 42.6364ZM136.492 38.8404C134.422 39.6669 128.624 39.3922 126.276 37.3258C123.93 35.258 122.274 34.5699 118.546 35.258L119.374 51.7911C119.374 51.7911 119.361 51.8745 119.327 52.0069C121.47 52.851 127.759 55.9077 128.051 62.7527C128.029 59.8544 127.934 58.1286 127.934 58.1286C127.934 58.1286 130.903 54.8799 133.685 51.2929C133.227 51.4888 132.736 51.4145 132.323 51.2554C131.879 51.0923 131.614 50.6944 131.325 50.3775C131.032 50.0576 130.782 49.7102 130.557 49.352C130.341 48.9862 130.131 48.625 129.973 48.2324L130.065 48.1727C130.362 48.4597 130.657 48.7428 130.971 48.9984C131.28 49.2571 131.59 49.5081 131.91 49.7301C132.233 49.952 132.608 50.0699 132.875 50.3148C133.157 50.5574 133.409 50.8 133.746 51.1712L133.737 51.2255C136.06 48.2239 138.237 44.9997 138.424 43.2494C138.839 39.3922 138.563 38.0139 136.492 38.8404Z" fill="#F46856"/>
<path d="M80.4404 54.8433C75.341 58.8979 71.4532 58.901 68.7287 57.6872C69.2793 58.0699 75.3234 62.4192 75.2298 69.5695C75.1915 72.4609 74.1509 75.2504 72.3719 77.5954C72.4018 77.7859 72.4302 77.9765 72.4302 78.1747C72.4302 78.4969 72.3757 78.8046 72.2983 79.1015C71.8842 80.6903 70.4502 81.8689 68.7287 81.8689C68.3637 81.8689 68.0178 81.8008 67.685 81.702C66.7756 82.2271 65.7986 82.6663 64.7688 83.0199C65.8002 83.9995 67.1927 84.6049 68.7287 84.6049C71.9049 84.6049 74.4791 82.035 74.4791 78.8658C74.4791 78.4556 74.4208 78.0614 74.338 77.6765C74.3089 77.5441 74.289 77.4079 74.2514 77.2793H74.8671C84.9709 69.4562 88.3671 58.5995 89.3142 54.5953C86.0575 54.5777 82.925 54.7002 80.4404 54.8433Z" fill="#00617E"/>
<path d="M90.3467 73.7258C90.3467 73.7258 90.7301 73.4549 91.3904 73.0271C99.7963 67.0737 100.473 58.6667 100.366 55.2787C99.3224 55.1868 98.2067 55.0812 97.0112 54.9595C94.5436 54.71 91.8911 54.609 89.3138 54.5953C88.3668 58.5994 84.9712 69.4561 74.8668 77.28H82.3801C86.0877 76.1626 89.0423 74.6909 91.3904 73.0271C90.7301 73.4549 90.3467 73.7258 90.3467 73.7258Z" fill="#004B6A"/>
<defs>
<filter id="filter0_d" x="0" y="-7" width="198" height="164" filterUnits="userSpaceOnUse" color-interpolation-filters="sRGB">
<feFlood flood-opacity="0" result="BackgroundImageFix"/>
<feColorMatrix in="SourceAlpha" type="matrix" values="0 0 0 0 0 0 0 0 0 0 0 0 0 0 0 0 0 0 127 0" result="hardAlpha"/>
<feOffset/>
<feGaussianBlur stdDeviation="15"/>
<feComposite in2="hardAlpha" operator="out"/>
<feColorMatrix type="matrix" values="0 0 0 0 0.773889 0 0 0 0 0.790472 0 0 0 0 0.829167 0 0 0 1 0"/>
<feBlend mode="normal" in2="BackgroundImageFix" result="effect1_dropShadow"/>
<feBlend mode="normal" in="SourceGraphic" in2="effect1_dropShadow" result="shape"/>
</filter>
</defs>
</svg>
