<svg width="198" height="164" viewBox="0 0 198 164" fill="none" xmlns="http://www.w3.org/2000/svg">
<g opacity="0.2" filter="url(#filter0_d)">
<path d="M31.1742 46.2335C31.5998 38.117 38.1258 31.7027 46.2465 31.3686C60.4935 30.7825 82.5881 30 99 30C115.412 30 137.507 30.7825 151.753 31.3686C159.874 31.7027 166.4 38.117 166.826 46.2335C167.377 56.7354 168 71.0436 168 82C168 92.9564 167.377 107.265 166.826 117.767C166.4 125.883 159.874 132.297 151.753 132.631C137.507 133.217 115.412 134 99 134C82.5881 134 60.4935 133.217 46.2465 132.631C38.1258 132.297 31.5998 125.883 31.1742 117.767C30.6235 107.265 30 92.9564 30 82C30 71.0436 30.6235 56.7354 31.1742 46.2335Z" fill="white"/>
</g>
<defs>
<filter id="filter0_d" x="0" y="0" width="198" height="164" filterUnits="userSpaceOnUse" color-interpolation-filters="sRGB">
<feFlood flood-opacity="0" result="BackgroundImageFix"/>
<feColorMatrix in="SourceAlpha" type="matrix" values="0 0 0 0 0 0 0 0 0 0 0 0 0 0 0 0 0 0 127 0" result="hardAlpha"/>
<feOffset/>
<feGaussianBlur stdDeviation="15"/>
<feComposite in2="hardAlpha" operator="out"/>
<feColorMatrix type="matrix" values="0 0 0 0 0.773889 0 0 0 0 0.790472 0 0 0 0 0.829167 0 0 0 1 0"/>
<feBlend mode="normal" in2="BackgroundImageFix" result="effect1_dropShadow"/>
<feBlend mode="normal" in="SourceGraphic" in2="effect1_dropShadow" result="shape"/>
</filter>
</defs>
</svg>
